<?xml version="1.0" standalone="no"?>
<!DOCTYPE svg PUBLIC "-//W3C//DTD SVG 20010904//EN"
 "http://www.w3.org/TR/2001/REC-SVG-20010904/DTD/svg10.dtd">
<svg version="1.0" xmlns="http://www.w3.org/2000/svg"
 width="983.000000pt" height="983.000000pt" viewBox="0 0 983.000000 983.000000"
 preserveAspectRatio="xMidYMid meet">
<metadata>
Created by potrace 1.11, written by Peter Selinger 2001-2013
</metadata>
<g transform="translate(0.000000,983.000000) scale(0.100000,-0.100000)"
fill="#000000" stroke="none">
<path d="M5009 8036 c-2 -2 -33 -7 -69 -10 -289 -25 -665 -147 -935 -305 -355
-206 -631 -461 -840 -775 -157 -236 -261 -497 -290 -726 -4 -29 -8 -60 -10
-69 -1 -9 -6 -50 -10 -91 -4 -41 -8 -82 -10 -90 -1 -8 -6 -51 -9 -95 -12 -138
-17 -189 -21 -225 -2 -19 -7 -78 -11 -130 -3 -52 -10 -100 -15 -105 -4 -6 -40
-80 -79 -165 -40 -85 -87 -186 -105 -225 -58 -122 -117 -248 -145 -310 -15
-33 -47 -100 -70 -150 -91 -193 -100 -217 -100 -252 0 -91 57 -171 137 -192
21 -5 106 -9 188 -9 83 0 157 -1 166 -1 14 -1 16 -38 16 -338 0 -186 3 -371 7
-411 23 -252 185 -420 466 -480 173 -38 255 -44 578 -44 182 0 252 -3 253 -12
1 -6 2 -239 3 -518 0 -278 4 -510 8 -514 5 -4 573 -8 1263 -8 1108 -1 1256 1
1259 14 3 8 4 440 4 960 0 520 1 968 2 995 1 47 3 52 47 85 68 52 250 235 328
331 258 320 451 754 501 1129 3 19 7 46 9 60 9 51 18 198 18 300 1 322 -60
629 -183 925 -264 632 -800 1126 -1457 1339 -109 36 -248 71 -313 80 -48 7
-97 14 -145 21 -49 8 -429 17 -436 11z m386 -260 c12 -2 48 -7 80 -11 33 -4
98 -16 145 -27 47 -11 94 -21 104 -24 11 -2 49 -13 85 -25 336 -111 621 -286
866 -533 260 -262 431 -557 545 -941 15 -50 49 -233 56 -293 3 -31 7 -70 9
-87 6 -40 6 -280 0 -330 -2 -22 -7 -66 -10 -98 -4 -48 -19 -126 -51 -277 -28
-135 -150 -420 -246 -573 -124 -201 -309 -408 -498 -559 l-95 -75 0 -939 0
-939 -1012 -3 -1013 -2 -1 32 c0 18 -1 255 -1 526 l-1 492 -351 0 c-447 1
-523 5 -669 35 -138 29 -240 98 -268 182 -10 28 -15 173 -19 548 l-5 510 -232
0 c-128 0 -233 1 -233 3 0 4 167 364 244 526 36 76 66 140 66 141 0 2 25 56
56 121 110 233 100 196 119 449 2 28 7 77 10 110 3 33 8 87 10 120 3 33 7 74
9 90 3 17 7 57 11 90 3 33 8 74 10 90 2 17 7 53 10 80 10 77 53 231 87 315 62
148 124 256 240 415 31 44 176 202 232 255 365 344 845 567 1301 606 39 4 71
8 73 9 5 4 315 -4 337 -9z"/>
<path d="M5712 7278 c-9 -12 -14 -35 -28 -123 -2 -16 -6 -39 -8 -50 -9 -43
-20 -120 -18 -127 1 -5 -6 -8 -15 -8 -10 0 -49 -13 -87 -29 l-69 -28 -124 89
c-68 48 -131 88 -141 88 -25 0 -212 -190 -212 -216 0 -11 20 -47 44 -81 25
-33 62 -86 84 -118 l40 -57 -31 -62 c-16 -33 -30 -67 -30 -74 0 -8 -10 -18
-21 -23 -18 -7 -193 -39 -236 -43 -15 -1 -16 4 -19 106 -1 35 -3 36 -48 47
-27 6 -66 13 -88 16 -65 9 -69 12 -88 65 l-18 51 55 78 c31 44 56 86 56 94 0
14 -48 67 -112 125 l-26 23 -81 -55 c-45 -31 -86 -56 -90 -56 -22 0 -101 43
-102 55 -1 8 -2 18 -3 23 -1 4 -6 30 -11 57 -18 107 -22 115 -53 116 -79 3
-167 -3 -173 -12 -3 -6 -12 -41 -18 -79 -7 -38 -14 -77 -16 -87 -2 -10 -4 -21
-4 -25 -1 -5 -8 -8 -16 -8 -8 0 -30 -8 -50 -17 -24 -12 -40 -14 -49 -8 -86 62
-155 105 -167 105 -25 0 -142 -128 -135 -146 3 -9 29 -48 56 -88 l50 -73 -21
-49 c-12 -27 -22 -50 -23 -51 -1 -1 -41 -8 -90 -17 -118 -21 -123 -26 -121
-127 1 -54 7 -85 16 -94 8 -8 52 -21 98 -29 46 -8 86 -17 89 -21 4 -3 14 -26
24 -52 l17 -45 -55 -78 c-29 -43 -54 -86 -54 -97 0 -11 28 -47 65 -82 l64 -62
33 17 c18 9 56 35 85 57 l53 39 53 -22 c30 -12 54 -27 54 -34 0 -6 3 -24 7
-41 3 -16 8 -46 11 -65 3 -20 9 -49 13 -65 l8 -29 94 -1 c59 0 97 4 105 11 6
7 18 53 25 102 l13 90 54 20 55 20 76 -54 c42 -30 85 -54 96 -54 10 0 48 29
83 65 73 74 73 63 -7 174 l-46 66 23 51 23 52 72 10 c40 6 74 9 76 7 3 -2 4
-56 4 -119 0 -84 3 -118 13 -126 9 -8 265 -58 303 -60 1 0 2 -6 2 -12 0 -7 13
-44 29 -83 l28 -70 -65 -95 c-36 -52 -76 -109 -89 -126 -13 -17 -23 -37 -23
-45 0 -24 193 -209 218 -209 12 0 74 37 138 83 l117 83 41 -21 c23 -11 59 -27
81 -36 l40 -16 19 -109 c10 -60 20 -125 23 -144 10 -70 10 -70 154 -70 l130 0
-6 -47 c-11 -76 -13 -79 -72 -101 l-56 -21 -64 45 -64 45 -52 -51 c-58 -57
-58 -46 5 -137 l28 -39 -22 -56 c-24 -60 -24 -60 -123 -75 -54 -8 -55 -8 -55
-82 0 -38 3 -72 8 -74 4 -3 30 -8 57 -11 77 -10 80 -12 104 -70 l22 -55 -44
-66 -45 -67 50 -49 c27 -27 52 -49 56 -49 3 0 31 18 62 39 l56 40 57 -22 c59
-23 62 -28 72 -107 9 -69 10 -70 90 -70 l73 0 7 53 c9 68 13 88 17 92 2 2 28
13 58 24 l55 21 65 -45 64 -45 48 49 c26 27 48 54 48 59 0 5 -18 34 -40 65
l-41 56 21 40 c11 22 20 47 20 55 0 8 12 17 28 20 61 11 117 20 125 18 7 -2 9
11 9 83 0 25 -1 51 -1 58 -1 8 -28 18 -74 25 l-72 12 -22 57 -22 56 44 64 45
64 -49 50 c-26 27 -51 49 -55 49 -4 0 -33 -18 -66 -40 l-58 -40 -56 26 c-31
14 -57 30 -57 35 -1 5 -2 12 -3 17 -2 4 -6 33 -10 65 -9 61 -8 61 -79 58 -37
-1 -38 0 -33 26 4 16 9 42 11 58 3 17 8 41 10 55 3 14 8 43 11 65 3 22 8 47 9
55 2 8 4 21 4 28 1 6 9 12 19 12 9 0 47 13 83 29 l65 28 123 -89 c68 -48 131
-88 141 -88 20 0 220 190 220 209 0 11 -75 129 -89 141 -4 3 -24 31 -45 62
l-39 58 31 68 c18 38 32 74 32 80 0 7 3 12 8 13 4 0 14 2 22 4 8 2 74 13 145
24 72 12 136 28 144 36 11 11 14 46 14 156 -1 78 -5 145 -10 150 -7 7 -243 51
-285 53 -11 0 -26 26 -47 82 -17 44 -31 84 -31 87 0 3 40 64 90 134 82 117 88
129 76 148 -18 28 -163 172 -191 191 -23 15 -12 21 -217 -122 l-58 -40 -67 33
c-38 18 -73 33 -79 33 -7 0 -17 28 -23 63 -6 34 -14 76 -17 92 -3 17 -7 39 -9
50 -8 57 -19 101 -28 113 -7 8 -50 12 -152 12 -102 0 -145 -4 -153 -12z m273
-498 c338 -87 521 -455 385 -776 -66 -154 -207 -276 -376 -324 -96 -28 -246
-22 -337 13 -177 69 -310 213 -360 392 -18 68 -19 207 -2 276 42 163 152 301
298 376 112 56 272 74 392 43z m-1722 -44 c18 -7 53 -32 78 -54 193 -172 62
-489 -200 -484 -191 3 -323 218 -242 394 23 50 78 111 123 134 67 35 173 39
241 10z m1852 -1954 c147 -100 79 -334 -98 -335 -111 -1 -197 84 -191 188 9
151 166 231 289 147z"/>
</g>
</svg>
